<mxfile host="app.diagrams.net" modified="2020-08-23T15:03:22.043Z" agent="5.0 (Macintosh; Intel Mac OS X 10_15_5) AppleWebKit/537.36 (KHTML, like Gecko) Chrome/84.0.4147.125 Safari/537.36" etag="H46gYg3xCFYvvGaTPxhf" version="13.6.4" type="github" pages="4">
  <diagram id="j6xY-HAz_z8t2t_g5744" name="Context">
    <mxGraphModel dx="817" dy="554" grid="1" gridSize="10" guides="1" tooltips="1" connect="1" arrows="1" fold="1" page="1" pageScale="1" pageWidth="827" pageHeight="1169" math="0" shadow="0">
      <root>
        <mxCell id="0" />
        <mxCell id="1" parent="0" />
        <object label="" placeholders="1" instruction="edit data of the lower shape within the group" id="hqLNEehM96beATyr9Use-1">
          <mxCell style="group;resizable=0;spacing=3;" vertex="1" connectable="0" parent="1">
            <mxGeometry x="220" y="30" width="160" height="170" as="geometry" />
          </mxCell>
        </object>
        <object label="&lt;div style=&quot;color: rgb(255 , 255 , 255) ; white-space: normal&quot;&gt;&lt;span style=&quot;font-size: 14px&quot;&gt;&lt;b style=&quot;font-size: 16px&quot;&gt;User&lt;/b&gt;&lt;/span&gt;&lt;/div&gt;&lt;div style=&quot;color: rgb(255 , 255 , 255) ; white-space: normal&quot;&gt;&lt;font style=&quot;font-size: 8px&quot;&gt;[Person]&lt;/font&gt;&lt;/div&gt;&lt;div style=&quot;color: rgb(255 , 255 , 255) ; white-space: normal ; font-size: 8px&quot;&gt;&lt;span style=&quot;font-size: x-small&quot;&gt;&lt;br&gt;&lt;/span&gt;&lt;/div&gt;&lt;div style=&quot;color: rgb(255 , 255 , 255) ; white-space: normal&quot;&gt;&lt;font style=&quot;font-size: 14px&quot;&gt;Java developers&lt;/font&gt;&lt;/div&gt;" name="Actor Name" description="Description" placeholders="1" id="hqLNEehM96beATyr9Use-2">
          <mxCell style="rounded=1;whiteSpace=wrap;html=1;strokeColor=#00315C;fillColor=#004179;fontColor=#000000;arcSize=32;spacing=3;" vertex="1" parent="hqLNEehM96beATyr9Use-1">
            <mxGeometry y="70" width="160" height="100" as="geometry" />
          </mxCell>
        </object>
        <mxCell id="hqLNEehM96beATyr9Use-3" value="" style="ellipse;whiteSpace=wrap;html=1;aspect=fixed;strokeColor=#00315C;fillColor=#004179;fontColor=#000000;spacing=3;" vertex="1" parent="hqLNEehM96beATyr9Use-1">
          <mxGeometry x="40" width="80" height="80" as="geometry" />
        </mxCell>
        <object label="&lt;div&gt;&lt;span style=&quot;font-size: 14px&quot;&gt;&lt;b style=&quot;font-size: 16px&quot;&gt;T4M&lt;/b&gt;&lt;/span&gt;&lt;/div&gt;&lt;div&gt;&lt;span style=&quot;font-size: 8px&quot;&gt;[Software]&lt;/span&gt;&lt;/div&gt;&lt;div&gt;&lt;span style=&quot;font-size: 8px&quot;&gt;&lt;br&gt;&lt;/span&gt;&lt;/div&gt;&lt;div&gt;&lt;font style=&quot;font-size: 14px&quot;&gt;A static code analysis tool.&lt;/font&gt;&lt;/div&gt;" placeholders="1" name="Software System Name" description="Description" id="hqLNEehM96beATyr9Use-5">
          <mxCell style="rounded=0;whiteSpace=wrap;html=1;fillColor=#0067BA;fontColor=#FFFFFF;strokeColor=#005DA8;resizable=0;spacing=3;" vertex="1" parent="1">
            <mxGeometry x="50" y="310" width="180" height="120" as="geometry" />
          </mxCell>
        </object>
        <object label="&lt;div&gt;&lt;span style=&quot;font-size: 14px&quot;&gt;&lt;b style=&quot;font-size: 16px&quot;&gt;Java Project&lt;/b&gt;&lt;/span&gt;&lt;/div&gt;&lt;div&gt;&lt;span style=&quot;font-size: 8px&quot;&gt;[File&lt;/span&gt;&lt;span style=&quot;font-size: 8px&quot;&gt;]&lt;/span&gt;&lt;br&gt;&lt;/div&gt;&lt;div&gt;&lt;span style=&quot;font-size: 8px&quot;&gt;&lt;br&gt;&lt;/span&gt;&lt;/div&gt;&lt;div style=&quot;font-size: 14px&quot;&gt;External Java projects that needs to be analysed.&lt;/div&gt;" placeholders="1" name="External System Name" description="Description of Software System" id="hqLNEehM96beATyr9Use-6">
          <mxCell style="rounded=0;whiteSpace=wrap;html=1;fillColor=#999999;fontColor=#FFFFFF;strokeColor=#828282;resizable=0;spacing=3;" vertex="1" parent="1">
            <mxGeometry x="380" y="310" width="180" height="120" as="geometry" />
          </mxCell>
        </object>
        <object label="&lt;b style=&quot;font-size: 14px&quot;&gt;Operates&lt;/b&gt;" placeholders="1" name="Dependency Operation Name" technology="JDBC" id="hqLNEehM96beATyr9Use-7">
          <mxCell style="endArrow=block;html=1;fontSize=10;fontColor=#404040;strokeWidth=1;endFill=1;dashed=1;dashPattern=8 8;strokeColor=#828282;elbow=vertical;exitX=0.5;exitY=1;exitDx=0;exitDy=0;entryX=0.5;entryY=0;entryDx=0;entryDy=0;spacing=3;" edge="1" parent="1" source="hqLNEehM96beATyr9Use-2" target="hqLNEehM96beATyr9Use-5">
            <mxGeometry width="50" height="50" relative="1" as="geometry">
              <mxPoint x="330" y="450" as="sourcePoint" />
              <mxPoint x="530" y="450" as="targetPoint" />
            </mxGeometry>
          </mxCell>
        </object>
        <object label="&lt;b style=&quot;font-size: 14px&quot;&gt;Analyses&lt;/b&gt;" placeholders="1" name="Dependency Operation Name" technology="JDBC" id="hqLNEehM96beATyr9Use-8">
          <mxCell style="endArrow=block;html=1;fontSize=10;fontColor=#404040;strokeWidth=1;endFill=1;dashed=1;dashPattern=8 8;strokeColor=#828282;elbow=vertical;exitX=1;exitY=0.5;exitDx=0;exitDy=0;entryX=0;entryY=0.5;entryDx=0;entryDy=0;spacing=3;" edge="1" parent="1" source="hqLNEehM96beATyr9Use-5" target="hqLNEehM96beATyr9Use-6">
            <mxGeometry width="50" height="50" relative="1" as="geometry">
              <mxPoint x="310" y="210" as="sourcePoint" />
              <mxPoint x="150" y="320" as="targetPoint" />
            </mxGeometry>
          </mxCell>
        </object>
        <object label="&lt;b style=&quot;font-size: 14px&quot;&gt;Develops&lt;/b&gt;" placeholders="1" name="Dependency Operation Name" technology="JDBC" id="hqLNEehM96beATyr9Use-9">
          <mxCell style="endArrow=block;html=1;fontSize=10;fontColor=#404040;strokeWidth=1;endFill=1;dashed=1;dashPattern=8 8;strokeColor=#828282;elbow=vertical;exitX=0.5;exitY=1;exitDx=0;exitDy=0;entryX=0.5;entryY=0;entryDx=0;entryDy=0;spacing=3;" edge="1" parent="1" source="hqLNEehM96beATyr9Use-2" target="hqLNEehM96beATyr9Use-6">
            <mxGeometry width="50" height="50" relative="1" as="geometry">
              <mxPoint x="240" y="380" as="sourcePoint" />
              <mxPoint x="390" y="380" as="targetPoint" />
            </mxGeometry>
          </mxCell>
        </object>
      </root>
    </mxGraphModel>
  </diagram>
  <diagram id="Rf0TmbQRz59tNL-opdxR" name="Container">
    <mxGraphModel dx="1330" dy="842" grid="1" gridSize="10" guides="1" tooltips="1" connect="1" arrows="1" fold="1" page="1" pageScale="1" pageWidth="827" pageHeight="1169" math="0" shadow="0">
      <root>
        <mxCell id="tKBb4zcHh9d9lHIYxf4P-0" />
        <mxCell id="tKBb4zcHh9d9lHIYxf4P-1" parent="tKBb4zcHh9d9lHIYxf4P-0" />
        <object label="&lt;font style=&quot;font-size: 14px&quot;&gt;&lt;b style=&quot;font-size: 16px&quot;&gt;T4M&lt;/b&gt;&lt;br style=&quot;font-size: 10px&quot;&gt;[Software]&lt;/font&gt;" placeholders="1" name="Software System Name" id="89omfG7jWvKbVjAI5k5s-8">
          <mxCell style="rounded=0;whiteSpace=wrap;html=1;strokeColor=#828282;fillColor=none;fontColor=#000000;align=left;labelPosition=center;verticalLabelPosition=middle;verticalAlign=bottom;dashed=1;strokeWidth=1;perimeterSpacing=0;spacing=2;spacingTop=0;fontSize=10;dashPattern=8 8;" vertex="1" parent="tKBb4zcHh9d9lHIYxf4P-1">
            <mxGeometry x="40" y="250" width="960" height="660" as="geometry" />
          </mxCell>
        </object>
        <object label="" placeholders="1" instruction="edit data of the lower shape within the group" id="89omfG7jWvKbVjAI5k5s-0">
          <mxCell style="group;resizable=0;spacing=3;" vertex="1" connectable="0" parent="tKBb4zcHh9d9lHIYxf4P-1">
            <mxGeometry x="141.25" y="30" width="160" height="170" as="geometry" />
          </mxCell>
        </object>
        <object label="&lt;div style=&quot;color: rgb(255 , 255 , 255) ; white-space: normal&quot;&gt;&lt;span style=&quot;font-size: 14px&quot;&gt;&lt;b style=&quot;font-size: 16px&quot;&gt;User&lt;/b&gt;&lt;/span&gt;&lt;/div&gt;&lt;div style=&quot;color: rgb(255 , 255 , 255) ; white-space: normal&quot;&gt;&lt;font style=&quot;font-size: 8px&quot;&gt;[Person]&lt;/font&gt;&lt;/div&gt;&lt;div style=&quot;color: rgb(255 , 255 , 255) ; white-space: normal ; font-size: 8px&quot;&gt;&lt;span style=&quot;font-size: x-small&quot;&gt;&lt;br&gt;&lt;/span&gt;&lt;/div&gt;&lt;div style=&quot;color: rgb(255 , 255 , 255) ; white-space: normal&quot;&gt;&lt;font style=&quot;font-size: 14px&quot;&gt;Java developers&lt;/font&gt;&lt;/div&gt;" name="Actor Name" description="Description" placeholders="1" id="89omfG7jWvKbVjAI5k5s-1">
          <mxCell style="rounded=1;whiteSpace=wrap;html=1;strokeColor=#00315C;fillColor=#004179;fontColor=#000000;arcSize=32;spacing=3;" vertex="1" parent="89omfG7jWvKbVjAI5k5s-0">
            <mxGeometry y="70" width="160" height="100" as="geometry" />
          </mxCell>
        </object>
        <mxCell id="89omfG7jWvKbVjAI5k5s-2" value="" style="ellipse;whiteSpace=wrap;html=1;aspect=fixed;strokeColor=#00315C;fillColor=#004179;fontColor=#000000;spacing=3;" vertex="1" parent="89omfG7jWvKbVjAI5k5s-0">
          <mxGeometry x="40" width="80" height="80" as="geometry" />
        </mxCell>
        <object label="&lt;div&gt;&lt;span style=&quot;font-size: 14px&quot;&gt;&lt;b style=&quot;font-size: 16px&quot;&gt;Java Project&lt;/b&gt;&lt;/span&gt;&lt;/div&gt;&lt;div&gt;&lt;span style=&quot;font-size: 8px&quot;&gt;[File&lt;/span&gt;&lt;span style=&quot;font-size: 8px&quot;&gt;]&lt;/span&gt;&lt;br&gt;&lt;/div&gt;&lt;div&gt;&lt;span style=&quot;font-size: 8px&quot;&gt;&lt;br&gt;&lt;/span&gt;&lt;/div&gt;&lt;div style=&quot;font-size: 14px&quot;&gt;External Java projects that needs to be analysed&amp;nbsp;&amp;nbsp;&lt;/div&gt;" placeholders="1" name="External System Name" description="Description of Software System" id="89omfG7jWvKbVjAI5k5s-4">
          <mxCell style="rounded=0;whiteSpace=wrap;html=1;fillColor=#999999;fontColor=#FFFFFF;strokeColor=#828282;resizable=0;spacing=3;" vertex="1" parent="tKBb4zcHh9d9lHIYxf4P-1">
            <mxGeometry x="785.75" y="80" width="180" height="120" as="geometry" />
          </mxCell>
        </object>
        <object label="&lt;b style=&quot;font-size: 14px&quot;&gt;Uses&lt;/b&gt;" placeholders="1" name="Dependency Operation Name" technology="JDBC" id="89omfG7jWvKbVjAI5k5s-5">
          <mxCell style="endArrow=block;html=1;fontSize=10;fontColor=#404040;strokeWidth=1;endFill=1;dashed=1;dashPattern=8 8;strokeColor=#828282;elbow=vertical;exitX=0.5;exitY=1;exitDx=0;exitDy=0;spacing=3;entryX=0.5;entryY=0;entryDx=0;entryDy=0;" edge="1" parent="tKBb4zcHh9d9lHIYxf4P-1" source="89omfG7jWvKbVjAI5k5s-1" target="89omfG7jWvKbVjAI5k5s-9">
            <mxGeometry width="50" height="50" relative="1" as="geometry">
              <mxPoint x="410" y="425" as="sourcePoint" />
              <mxPoint x="80" y="210" as="targetPoint" />
            </mxGeometry>
          </mxCell>
        </object>
        <object label="&lt;div&gt;&lt;span style=&quot;font-size: 14px&quot;&gt;&lt;b style=&quot;font-size: 16px&quot;&gt;Web Page&lt;/b&gt;&lt;/span&gt;&lt;/div&gt;&lt;div&gt;&lt;span style=&quot;font-size: 8px&quot;&gt;[Container: JavaScript, Vue and ECharts]&lt;/span&gt;&lt;/div&gt;&lt;div&gt;&lt;span style=&quot;font-size: 8px&quot;&gt;&lt;br&gt;&lt;/span&gt;&lt;/div&gt;&lt;div&gt;&lt;font style=&quot;font-size: 14px&quot;&gt;Provide all of the visualising and operating functionality to users via browsers.&lt;/font&gt;&lt;br&gt;&lt;/div&gt;" placeholders="1" name="Container Name" technology="e.g. Python, Flask" description="Description" id="89omfG7jWvKbVjAI5k5s-9">
          <mxCell style="rounded=0;whiteSpace=wrap;html=1;fillColor=#3B8CD2;fontColor=#FFFFFF;strokeColor=#2F6FA6;rotation=0;" vertex="1" parent="tKBb4zcHh9d9lHIYxf4P-1">
            <mxGeometry x="122.5" y="285" width="197.5" height="145" as="geometry" />
          </mxCell>
        </object>
        <object label="&lt;div&gt;&lt;span style=&quot;font-size: 14px&quot;&gt;&lt;b style=&quot;font-size: 16px&quot;&gt;Web Application&lt;/b&gt;&lt;/span&gt;&lt;/div&gt;&lt;div&gt;&lt;span style=&quot;font-size: 8px&quot;&gt;[Container: Java and Spring Boot]&lt;/span&gt;&lt;/div&gt;&lt;div&gt;&lt;span style=&quot;font-size: 8px&quot;&gt;&lt;br&gt;&lt;/span&gt;&lt;/div&gt;&lt;div&gt;&lt;font style=&quot;font-size: 14px&quot;&gt;Provide all of the T4M functionality via HTTP.&lt;/font&gt;&lt;br&gt;&lt;/div&gt;" placeholders="1" name="Container Name" technology="e.g. Python, Flask" description="Description" id="89omfG7jWvKbVjAI5k5s-20">
          <mxCell style="rounded=0;whiteSpace=wrap;html=1;fillColor=#3B8CD2;fontColor=#FFFFFF;strokeColor=#2F6FA6;rotation=0;" vertex="1" parent="tKBb4zcHh9d9lHIYxf4P-1">
            <mxGeometry x="445" y="292.5" width="188.75" height="130" as="geometry" />
          </mxCell>
        </object>
        <object label="&lt;b style=&quot;font-size: 14px&quot;&gt;Communicates&lt;/b&gt;&lt;br style=&quot;font-size: 10px&quot;&gt;[HTTP]" placeholders="1" name="Dependency Operation Name" technology="JDBC" id="qj5iePzC45IxX5yAWYFj-0">
          <mxCell style="endArrow=block;html=1;fontSize=10;fontColor=#404040;strokeWidth=1;endFill=1;dashed=1;dashPattern=8 8;strokeColor=#828282;elbow=vertical;entryX=0;entryY=0.5;entryDx=0;entryDy=0;exitX=1;exitY=0.5;exitDx=0;exitDy=0;" edge="1" parent="tKBb4zcHh9d9lHIYxf4P-1" source="89omfG7jWvKbVjAI5k5s-9" target="89omfG7jWvKbVjAI5k5s-20">
            <mxGeometry width="50" height="50" relative="1" as="geometry">
              <mxPoint x="390" y="80" as="sourcePoint" />
              <mxPoint x="540" y="50" as="targetPoint" />
            </mxGeometry>
          </mxCell>
        </object>
        <object label="&lt;div&gt;&lt;span style=&quot;font-size: 14px&quot;&gt;&lt;b style=&quot;font-size: 16px&quot;&gt;Core&lt;/b&gt;&lt;/span&gt;&lt;/div&gt;&lt;div&gt;&lt;span style=&quot;font-size: 8px&quot;&gt;[Container: Java and JavaParser]&lt;/span&gt;&lt;/div&gt;&lt;div&gt;&lt;span style=&quot;font-size: 8px&quot;&gt;&lt;br&gt;&lt;/span&gt;&lt;/div&gt;&lt;div&gt;&lt;font style=&quot;font-size: 14px&quot;&gt;Scan external Java projects and calculate software architecture metrics.&lt;/font&gt;&lt;br&gt;&lt;/div&gt;" placeholders="1" name="Container Name" technology="e.g. Python, Flask" description="Description" id="6Xa-K6vj3SWReUXmQVwW-1">
          <mxCell style="rounded=0;whiteSpace=wrap;html=1;fillColor=#3B8CD2;fontColor=#FFFFFF;strokeColor=#2F6FA6;rotation=0;" vertex="1" parent="tKBb4zcHh9d9lHIYxf4P-1">
            <mxGeometry x="777" y="292.5" width="188.75" height="130" as="geometry" />
          </mxCell>
        </object>
        <object label="&lt;span style=&quot;font-size: 14px&quot;&gt;&lt;b&gt;Invoke&lt;/b&gt;&lt;/span&gt;&lt;br style=&quot;font-size: 10px&quot;&gt;[Module Dependency]" placeholders="1" name="Dependency Operation Name" technology="JDBC" id="6Xa-K6vj3SWReUXmQVwW-2">
          <mxCell style="endArrow=block;html=1;fontSize=10;fontColor=#404040;strokeWidth=1;endFill=1;dashed=1;dashPattern=8 8;strokeColor=#828282;elbow=vertical;entryX=0;entryY=0.5;entryDx=0;entryDy=0;exitX=1;exitY=0.5;exitDx=0;exitDy=0;" edge="1" parent="tKBb4zcHh9d9lHIYxf4P-1" source="89omfG7jWvKbVjAI5k5s-20" target="6Xa-K6vj3SWReUXmQVwW-1">
            <mxGeometry width="50" height="50" relative="1" as="geometry">
              <mxPoint x="231.25" y="439.9999999999998" as="sourcePoint" />
              <mxPoint x="231.25499999999988" y="549.9999999999998" as="targetPoint" />
            </mxGeometry>
          </mxCell>
        </object>
        <object label="&lt;span style=&quot;font-size: 14px&quot;&gt;&lt;b&gt;Analyse&lt;/b&gt;&lt;/span&gt;&lt;br style=&quot;font-size: 10px&quot;&gt;[JavaParser]" placeholders="1" name="Dependency Operation Name" technology="JDBC" id="6Xa-K6vj3SWReUXmQVwW-4">
          <mxCell style="endArrow=block;html=1;fontSize=10;fontColor=#404040;strokeWidth=1;endFill=1;dashed=1;dashPattern=8 8;strokeColor=#828282;elbow=vertical;entryX=0.5;entryY=1;entryDx=0;entryDy=0;exitX=0.5;exitY=0;exitDx=0;exitDy=0;" edge="1" parent="tKBb4zcHh9d9lHIYxf4P-1" source="6Xa-K6vj3SWReUXmQVwW-1" target="89omfG7jWvKbVjAI5k5s-4">
            <mxGeometry width="50" height="50" relative="1" as="geometry">
              <mxPoint x="325.6300000000001" y="614.9999999999998" as="sourcePoint" />
              <mxPoint x="520" y="614.9999999999998" as="targetPoint" />
            </mxGeometry>
          </mxCell>
        </object>
        <object label="&lt;div style=&quot;color: rgb(255 , 255 , 255) ; white-space: normal&quot;&gt;&lt;span style=&quot;font-size: 14px&quot;&gt;&lt;b&gt;Database&lt;/b&gt;&lt;/span&gt;&lt;/div&gt;&lt;div style=&quot;color: rgb(255 , 255 , 255) ; font-size: 12px ; white-space: normal&quot;&gt;&lt;font style=&quot;font-size: 8px&quot;&gt;[Container: Java Serialisation]&lt;/font&gt;&lt;/div&gt;&lt;div style=&quot;color: rgb(255 , 255 , 255) ; white-space: normal ; font-size: 8px&quot;&gt;&lt;font style=&quot;line-height: 9.6px&quot;&gt;&lt;br&gt;&lt;/font&gt;&lt;/div&gt;&lt;div style=&quot;color: rgb(255 , 255 , 255) ; white-space: normal&quot;&gt;JavaBean objects files&amp;nbsp;&lt;/div&gt;" placeholders="1" name="Container Name" description="Description" technology="e.g. PostgreSQL" id="6Xa-K6vj3SWReUXmQVwW-6">
          <mxCell style="shape=cylinder;whiteSpace=wrap;html=1;boundedLbl=1;backgroundOutline=1;strokeColor=#2F6FA6;strokeWidth=1;fillColor=#3B8CD2;fontSize=9;fontColor=#000000;align=center;" vertex="1" parent="tKBb4zcHh9d9lHIYxf4P-1">
            <mxGeometry x="445" y="490" width="188.75" height="130" as="geometry" />
          </mxCell>
        </object>
        <object label="&lt;b style=&quot;font-size: 14px&quot;&gt;Read/Write&lt;/b&gt;&lt;br style=&quot;font-size: 10px&quot;&gt;[ObjctInputStream/ObjectOutputStream]" placeholders="1" name="Dependency Operation Name" technology="JDBC" id="6Xa-K6vj3SWReUXmQVwW-9">
          <mxCell style="endArrow=block;html=1;fontSize=10;fontColor=#404040;strokeWidth=1;endFill=1;dashed=1;dashPattern=8 8;strokeColor=#828282;elbow=vertical;entryX=0.5;entryY=0;entryDx=0;entryDy=0;edgeStyle=orthogonalEdgeStyle;exitX=0.5;exitY=1;exitDx=0;exitDy=0;" edge="1" parent="tKBb4zcHh9d9lHIYxf4P-1" source="89omfG7jWvKbVjAI5k5s-20" target="6Xa-K6vj3SWReUXmQVwW-6">
            <mxGeometry width="50" height="50" relative="1" as="geometry">
              <mxPoint x="605.6249999999998" y="432.4999999999998" as="sourcePoint" />
              <mxPoint x="605.6199999999999" y="554.9999999999998" as="targetPoint" />
            </mxGeometry>
          </mxCell>
        </object>
        <object label="&lt;div&gt;&lt;span style=&quot;font-size: 14px&quot;&gt;&lt;b style=&quot;font-size: 16px&quot;&gt;Global Properties&lt;/b&gt;&lt;/span&gt;&lt;/div&gt;&lt;div&gt;&lt;span style=&quot;font-size: 8px&quot;&gt;[Container: Java]&lt;/span&gt;&lt;/div&gt;&lt;div&gt;&lt;span style=&quot;font-size: 8px&quot;&gt;&lt;br&gt;&lt;/span&gt;&lt;/div&gt;&lt;div&gt;&lt;span style=&quot;font-size: 14px&quot;&gt;Load global configurations and provide to all modules.&lt;/span&gt;&lt;br&gt;&lt;/div&gt;" placeholders="1" name="Container Name" technology="e.g. Python, Flask" description="Description" id="6Xa-K6vj3SWReUXmQVwW-10">
          <mxCell style="rounded=0;whiteSpace=wrap;html=1;fillColor=#3B8CD2;fontColor=#FFFFFF;strokeColor=#2F6FA6;rotation=0;" vertex="1" parent="tKBb4zcHh9d9lHIYxf4P-1">
            <mxGeometry x="200" y="680" width="188.75" height="130" as="geometry" />
          </mxCell>
        </object>
        <object label="&lt;div&gt;&lt;span style=&quot;font-size: 14px&quot;&gt;&lt;b style=&quot;font-size: 16px&quot;&gt;Logging&lt;/b&gt;&lt;/span&gt;&lt;/div&gt;&lt;div&gt;&lt;span style=&quot;font-size: 8px&quot;&gt;[Container: slf4j and Logback]&lt;/span&gt;&lt;/div&gt;&lt;div&gt;&lt;span style=&quot;font-size: 8px&quot;&gt;&lt;br&gt;&lt;/span&gt;&lt;/div&gt;&lt;div&gt;&lt;font style=&quot;font-size: 14px&quot;&gt;The logging system in T4M.&lt;/font&gt;&lt;br&gt;&lt;/div&gt;" placeholders="1" name="Container Name" technology="e.g. Python, Flask" description="Description" id="6Xa-K6vj3SWReUXmQVwW-11">
          <mxCell style="rounded=0;whiteSpace=wrap;html=1;fillColor=#3B8CD2;fontColor=#FFFFFF;strokeColor=#2F6FA6;rotation=0;" vertex="1" parent="tKBb4zcHh9d9lHIYxf4P-1">
            <mxGeometry x="445" y="680" width="188.75" height="130" as="geometry" />
          </mxCell>
        </object>
        <object label="&lt;div&gt;&lt;span style=&quot;font-size: 14px&quot;&gt;&lt;b style=&quot;font-size: 16px&quot;&gt;Testing&lt;/b&gt;&lt;/span&gt;&lt;/div&gt;&lt;div&gt;&lt;span style=&quot;font-size: 8px&quot;&gt;[Container: JUnit]&lt;/span&gt;&lt;/div&gt;&lt;div&gt;&lt;span style=&quot;font-size: 8px&quot;&gt;&lt;br&gt;&lt;/span&gt;&lt;/div&gt;&lt;div&gt;&lt;span style=&quot;font-size: 14px&quot;&gt;Provide unit tests to all modules.&lt;/span&gt;&lt;br&gt;&lt;/div&gt;" placeholders="1" name="Container Name" technology="e.g. Python, Flask" description="Description" id="6Xa-K6vj3SWReUXmQVwW-12">
          <mxCell style="rounded=0;whiteSpace=wrap;html=1;fillColor=#3B8CD2;fontColor=#FFFFFF;strokeColor=#2F6FA6;rotation=0;" vertex="1" parent="tKBb4zcHh9d9lHIYxf4P-1">
            <mxGeometry x="690" y="680" width="188.75" height="130" as="geometry" />
          </mxCell>
        </object>
      </root>
    </mxGraphModel>
  </diagram>
  <diagram id="cYNM-Jc7fnsz5P15B7dH" name="Component">
    <mxGraphModel dx="340" dy="791" grid="1" gridSize="10" guides="1" tooltips="1" connect="1" arrows="1" fold="1" page="1" pageScale="1" pageWidth="827" pageHeight="1169" math="0" shadow="0">
      <root>
        <mxCell id="j5aUkZLm4WQyy_nmsf1Z-0" />
        <mxCell id="j5aUkZLm4WQyy_nmsf1Z-1" parent="j5aUkZLm4WQyy_nmsf1Z-0" />
        <object label="&lt;div&gt;&lt;span style=&quot;font-size: 14px&quot;&gt;&lt;b style=&quot;font-size: 16px&quot;&gt;Java Project&lt;/b&gt;&lt;/span&gt;&lt;/div&gt;&lt;div&gt;&lt;span style=&quot;font-size: 8px&quot;&gt;[File&lt;/span&gt;&lt;span style=&quot;font-size: 8px&quot;&gt;]&lt;/span&gt;&lt;br&gt;&lt;/div&gt;&lt;div&gt;&lt;span style=&quot;font-size: 8px&quot;&gt;&lt;br&gt;&lt;/span&gt;&lt;/div&gt;&lt;div style=&quot;font-size: 14px&quot;&gt;External Java projects that needs to be analysed&amp;nbsp;&amp;nbsp;&lt;/div&gt;" placeholders="1" name="External System Name" description="Description of Software System" id="CtTkhzNRKS3yQk-eYBiU-4">
          <mxCell style="rounded=0;whiteSpace=wrap;html=1;fillColor=#999999;fontColor=#FFFFFF;strokeColor=#828282;resizable=0;spacing=3;" vertex="1" parent="j5aUkZLm4WQyy_nmsf1Z-1">
            <mxGeometry x="1643" y="114" width="180" height="120" as="geometry" />
          </mxCell>
        </object>
        <object label="&lt;font&gt;&lt;span style=&quot;font-size: 16px&quot;&gt;&lt;b&gt;Web Application&lt;/b&gt;&lt;/span&gt;&lt;br style=&quot;font-size: 10px&quot;&gt;&lt;span style=&quot;font-size: 14px&quot;&gt;[Container]&lt;/span&gt;&lt;/font&gt;" placeholders="1" name="Software System Name" id="CtTkhzNRKS3yQk-eYBiU-17">
          <mxCell style="rounded=0;whiteSpace=wrap;html=1;strokeColor=#828282;fillColor=none;fontColor=#000000;align=left;labelPosition=center;verticalLabelPosition=middle;verticalAlign=bottom;dashed=1;strokeWidth=1;perimeterSpacing=0;spacing=2;spacingTop=0;fontSize=10;dashPattern=8 8;" vertex="1" parent="j5aUkZLm4WQyy_nmsf1Z-1">
            <mxGeometry x="920" y="319" width="550" height="500" as="geometry" />
          </mxCell>
        </object>
        <object label="&lt;div&gt;&lt;span style=&quot;font-size: 14px&quot;&gt;&lt;b style=&quot;font-size: 16px&quot;&gt;Metric Controllers&lt;/b&gt;&lt;/span&gt;&lt;/div&gt;&lt;div&gt;&lt;span style=&quot;font-size: 8px&quot;&gt;[Component: Spring Boot Conproller and Rest Controller]&lt;/span&gt;&lt;/div&gt;&lt;div&gt;&lt;span style=&quot;font-size: 8px&quot;&gt;&lt;br&gt;&lt;/span&gt;&lt;/div&gt;&lt;div&gt;&lt;span style=&quot;font-size: 14px&quot;&gt;Respond to users with web pages or data corresponding to the metrics.&lt;/span&gt;&lt;br&gt;&lt;/div&gt;" placeholders="1" name="Component Name" technology="e.g. Spring Bean" description="Description" id="CtTkhzNRKS3yQk-eYBiU-18">
          <mxCell style="rounded=0;whiteSpace=wrap;html=1;fillColor=#85baf0;fontColor=#000000;strokeColor=#6992BD;" vertex="1" parent="j5aUkZLm4WQyy_nmsf1Z-1">
            <mxGeometry x="943.75" y="339" width="210" height="140" as="geometry" />
          </mxCell>
        </object>
        <object label="&lt;div&gt;&lt;span style=&quot;font-size: 14px&quot;&gt;&lt;b style=&quot;font-size: 16px&quot;&gt;Operation Controller&lt;/b&gt;&lt;/span&gt;&lt;/div&gt;&lt;div&gt;&lt;span style=&quot;font-size: 8px&quot;&gt;[Component: Spring Boot Rest Controller]&lt;/span&gt;&lt;/div&gt;&lt;div&gt;&lt;span style=&quot;font-size: 8px&quot;&gt;&lt;br&gt;&lt;/span&gt;&lt;/div&gt;&lt;div&gt;&lt;span style=&quot;font-size: 14px&quot;&gt;Allow users to control T4M, e.g. analysing the current project or a new project.&lt;/span&gt;&lt;br&gt;&lt;/div&gt;" placeholders="1" name="Component Name" technology="e.g. Spring Bean" description="Description" id="CtTkhzNRKS3yQk-eYBiU-19">
          <mxCell style="rounded=0;whiteSpace=wrap;html=1;fillColor=#85baf0;fontColor=#000000;strokeColor=#6992BD;" vertex="1" parent="j5aUkZLm4WQyy_nmsf1Z-1">
            <mxGeometry x="1240" y="339" width="210" height="140" as="geometry" />
          </mxCell>
        </object>
        <object label="&lt;div&gt;&lt;span style=&quot;font-size: 14px&quot;&gt;&lt;b style=&quot;font-size: 16px&quot;&gt;Formatting Component&lt;/b&gt;&lt;/span&gt;&lt;/div&gt;&lt;div&gt;&lt;span style=&quot;font-size: 8px&quot;&gt;[Component: Spring Boot Service]&lt;/span&gt;&lt;/div&gt;&lt;div&gt;&lt;span style=&quot;font-size: 8px&quot;&gt;&lt;br&gt;&lt;/span&gt;&lt;/div&gt;&lt;div&gt;&lt;span style=&quot;font-size: 13px&quot;&gt;Format project information and metrics &lt;/span&gt;&lt;font style=&quot;font-size: 14px&quot;&gt;data&lt;/font&gt;&lt;span style=&quot;font-size: 13px&quot;&gt; for visualization on the web pages.&lt;/span&gt;&lt;br&gt;&lt;/div&gt;" placeholders="1" name="Component Name" technology="e.g. Spring Bean" description="Description" id="CtTkhzNRKS3yQk-eYBiU-20">
          <mxCell style="rounded=0;whiteSpace=wrap;html=1;fillColor=#85baf0;fontColor=#000000;strokeColor=#6992BD;" vertex="1" parent="j5aUkZLm4WQyy_nmsf1Z-1">
            <mxGeometry x="1095" y="539" width="210" height="120" as="geometry" />
          </mxCell>
        </object>
        <object label="&lt;font&gt;&lt;span style=&quot;font-size: 16px&quot;&gt;&lt;b&gt;Core&lt;/b&gt;&lt;/span&gt;&lt;br style=&quot;font-size: 10px&quot;&gt;&lt;span style=&quot;font-size: 14px&quot;&gt;[Container]&lt;/span&gt;&lt;/font&gt;" placeholders="1" name="Software System Name" id="CtTkhzNRKS3yQk-eYBiU-22">
          <mxCell style="rounded=0;whiteSpace=wrap;html=1;strokeColor=#828282;fillColor=none;fontColor=#000000;align=left;labelPosition=center;verticalLabelPosition=middle;verticalAlign=bottom;dashed=1;strokeWidth=1;perimeterSpacing=0;spacing=2;spacingTop=0;fontSize=10;dashPattern=8 8;" vertex="1" parent="j5aUkZLm4WQyy_nmsf1Z-1">
            <mxGeometry x="1600" y="319" width="320" height="541" as="geometry" />
          </mxCell>
        </object>
        <object label="&lt;div&gt;&lt;span style=&quot;font-size: 14px&quot;&gt;&lt;b style=&quot;font-size: 16px&quot;&gt;Scanner Component&lt;/b&gt;&lt;/span&gt;&lt;/div&gt;&lt;div&gt;&lt;span style=&quot;font-size: 8px&quot;&gt;[Component: Java and JavaParser]&lt;/span&gt;&lt;/div&gt;&lt;div&gt;&lt;span style=&quot;font-size: 8px&quot;&gt;&lt;br&gt;&lt;/span&gt;&lt;/div&gt;&lt;div&gt;&lt;span style=&quot;font-size: 14px&quot;&gt;Scan Java projects and extract relevant metadata for computing metrics.&lt;/span&gt;&lt;/div&gt;" placeholders="1" name="Component Name" technology="e.g. Spring Bean" description="Description" id="CtTkhzNRKS3yQk-eYBiU-23">
          <mxCell style="rounded=0;whiteSpace=wrap;html=1;fillColor=#85baf0;fontColor=#000000;strokeColor=#6992BD;" vertex="1" parent="j5aUkZLm4WQyy_nmsf1Z-1">
            <mxGeometry x="1628" y="344" width="210" height="130" as="geometry" />
          </mxCell>
        </object>
        <object label="&lt;div&gt;&lt;span style=&quot;font-size: 14px&quot;&gt;&lt;b style=&quot;font-size: 16px&quot;&gt;Metrics Component&lt;/b&gt;&lt;/span&gt;&lt;/div&gt;&lt;div&gt;&lt;span style=&quot;font-size: 8px&quot;&gt;[Component: Java]&lt;/span&gt;&lt;/div&gt;&lt;div&gt;&lt;span style=&quot;font-size: 8px&quot;&gt;&lt;br&gt;&lt;/span&gt;&lt;/div&gt;&lt;div&gt;&lt;span style=&quot;font-size: 14px&quot;&gt;Calculate the metrics corresponding to the metadata.&lt;/span&gt;&lt;/div&gt;" placeholders="1" name="Component Name" technology="e.g. Spring Bean" description="Description" id="CtTkhzNRKS3yQk-eYBiU-24">
          <mxCell style="rounded=0;whiteSpace=wrap;html=1;fillColor=#85baf0;fontColor=#000000;strokeColor=#6992BD;" vertex="1" parent="j5aUkZLm4WQyy_nmsf1Z-1">
            <mxGeometry x="1628" y="525" width="210" height="120" as="geometry" />
          </mxCell>
        </object>
        <object label="&lt;font&gt;&lt;span style=&quot;font-size: 16px&quot;&gt;&lt;b&gt;Database&lt;/b&gt;&lt;/span&gt;&lt;br style=&quot;font-size: 10px&quot;&gt;&lt;span style=&quot;font-size: 14px&quot;&gt;[Container]&lt;/span&gt;&lt;/font&gt;" placeholders="1" name="Software System Name" id="CtTkhzNRKS3yQk-eYBiU-27">
          <mxCell style="rounded=0;whiteSpace=wrap;html=1;strokeColor=#828282;fillColor=none;fontColor=#000000;align=left;labelPosition=center;verticalLabelPosition=middle;verticalAlign=bottom;dashed=1;strokeWidth=1;perimeterSpacing=0;spacing=2;spacingTop=0;fontSize=10;dashPattern=8 8;" vertex="1" parent="j5aUkZLm4WQyy_nmsf1Z-1">
            <mxGeometry x="1005" y="859" width="390" height="310" as="geometry" />
          </mxCell>
        </object>
        <object label="&lt;div&gt;&lt;span style=&quot;font-size: 14px&quot;&gt;&lt;b style=&quot;font-size: 16px&quot;&gt;Serialisation Component&lt;/b&gt;&lt;/span&gt;&lt;/div&gt;&lt;div&gt;&lt;span style=&quot;font-size: 8px&quot;&gt;[Component: Java serialisation]&lt;/span&gt;&lt;/div&gt;&lt;div&gt;&lt;span style=&quot;font-size: 8px&quot;&gt;&lt;br&gt;&lt;/span&gt;&lt;/div&gt;&lt;div style=&quot;font-size: 14px&quot;&gt;Responsible for operating file system related to JavaBeans, e.g. read, write, delete.&lt;br&gt;&lt;/div&gt;" placeholders="1" name="Component Name" technology="e.g. Spring Bean" description="Description" id="CtTkhzNRKS3yQk-eYBiU-28">
          <mxCell style="rounded=0;whiteSpace=wrap;html=1;fillColor=#85baf0;fontColor=#000000;strokeColor=#6992BD;" vertex="1" parent="j5aUkZLm4WQyy_nmsf1Z-1">
            <mxGeometry x="1095" y="879" width="210" height="120" as="geometry" />
          </mxCell>
        </object>
        <object label="&lt;div&gt;&lt;span style=&quot;font-size: 14px&quot;&gt;&lt;b style=&quot;font-size: 16px&quot;&gt;Local File System&lt;/b&gt;&lt;/span&gt;&lt;/div&gt;&lt;div&gt;&lt;span style=&quot;font-size: 8px&quot;&gt;[File&lt;/span&gt;&lt;span style=&quot;font-size: 8px&quot;&gt;]&lt;/span&gt;&lt;br&gt;&lt;/div&gt;&lt;div&gt;&lt;span style=&quot;font-size: 8px&quot;&gt;&lt;br&gt;&lt;/span&gt;&lt;/div&gt;&lt;div style=&quot;font-size: 14px&quot;&gt;Where the serialised files placed.&amp;nbsp;&amp;nbsp;&lt;/div&gt;" placeholders="1" name="External System Name" description="Description of Software System" id="CtTkhzNRKS3yQk-eYBiU-30">
          <mxCell style="rounded=0;whiteSpace=wrap;html=1;fillColor=#999999;fontColor=#FFFFFF;strokeColor=#828282;resizable=0;spacing=3;" vertex="1" parent="j5aUkZLm4WQyy_nmsf1Z-1">
            <mxGeometry x="1110" y="1039" width="180" height="120" as="geometry" />
          </mxCell>
        </object>
        <object label="&lt;div&gt;&lt;span style=&quot;font-size: 14px&quot;&gt;&lt;b style=&quot;font-size: 16px&quot;&gt;Data Component&lt;/b&gt;&lt;/span&gt;&lt;/div&gt;&lt;div&gt;&lt;span style=&quot;font-size: 8px&quot;&gt;[Component: Java]&lt;/span&gt;&lt;/div&gt;&lt;div&gt;&lt;span style=&quot;font-size: 8px&quot;&gt;&lt;br&gt;&lt;/span&gt;&lt;/div&gt;&lt;div&gt;&lt;span style=&quot;font-size: 14px&quot;&gt;Interact with database and keep raw data in a singleton object.&lt;/span&gt;&lt;/div&gt;" placeholders="1" name="Component Name" technology="e.g. Spring Bean" description="Description" id="CtTkhzNRKS3yQk-eYBiU-31">
          <mxCell style="rounded=0;whiteSpace=wrap;html=1;fillColor=#85baf0;fontColor=#000000;strokeColor=#6992BD;" vertex="1" parent="j5aUkZLm4WQyy_nmsf1Z-1">
            <mxGeometry x="1095" y="699" width="210" height="90" as="geometry" />
          </mxCell>
        </object>
        <object label="" placeholders="1" instruction="edit data of the lower shape within the group" id="CtTkhzNRKS3yQk-eYBiU-32">
          <mxCell style="group;resizable=0;spacing=3;" vertex="1" connectable="0" parent="j5aUkZLm4WQyy_nmsf1Z-1">
            <mxGeometry x="950" y="55" width="160" height="170" as="geometry" />
          </mxCell>
        </object>
        <object label="&lt;div style=&quot;color: rgb(255 , 255 , 255) ; white-space: normal&quot;&gt;&lt;span style=&quot;font-size: 14px&quot;&gt;&lt;b style=&quot;font-size: 16px&quot;&gt;User&lt;/b&gt;&lt;/span&gt;&lt;/div&gt;&lt;div style=&quot;color: rgb(255 , 255 , 255) ; white-space: normal&quot;&gt;&lt;font style=&quot;font-size: 8px&quot;&gt;[Person]&lt;/font&gt;&lt;/div&gt;&lt;div style=&quot;color: rgb(255 , 255 , 255) ; white-space: normal ; font-size: 8px&quot;&gt;&lt;span style=&quot;font-size: x-small&quot;&gt;&lt;br&gt;&lt;/span&gt;&lt;/div&gt;&lt;div style=&quot;color: rgb(255 , 255 , 255) ; white-space: normal&quot;&gt;&lt;font style=&quot;font-size: 14px&quot;&gt;Java developers&lt;/font&gt;&lt;/div&gt;" name="Actor Name" description="Description" placeholders="1" id="CtTkhzNRKS3yQk-eYBiU-33">
          <mxCell style="rounded=1;whiteSpace=wrap;html=1;strokeColor=#00315C;fillColor=#004179;fontColor=#000000;arcSize=32;spacing=3;" vertex="1" parent="CtTkhzNRKS3yQk-eYBiU-32">
            <mxGeometry y="70" width="160" height="100" as="geometry" />
          </mxCell>
        </object>
        <mxCell id="CtTkhzNRKS3yQk-eYBiU-34" value="" style="ellipse;whiteSpace=wrap;html=1;aspect=fixed;strokeColor=#00315C;fillColor=#004179;fontColor=#000000;spacing=3;" vertex="1" parent="CtTkhzNRKS3yQk-eYBiU-32">
          <mxGeometry x="40" width="80" height="80" as="geometry" />
        </mxCell>
        <object label="&lt;b style=&quot;font-size: 14px&quot;&gt;Uses&lt;/b&gt;" placeholders="1" name="Dependency Operation Name" technology="JDBC" id="CtTkhzNRKS3yQk-eYBiU-35">
          <mxCell style="endArrow=block;html=1;fontSize=10;fontColor=#404040;strokeWidth=1;endFill=1;dashed=1;dashPattern=8 8;strokeColor=#828282;elbow=vertical;spacing=3;entryX=0;entryY=0.5;entryDx=0;entryDy=0;" edge="1" parent="j5aUkZLm4WQyy_nmsf1Z-1" source="CtTkhzNRKS3yQk-eYBiU-33" target="CtTkhzNRKS3yQk-eYBiU-36">
            <mxGeometry width="50" height="50" relative="1" as="geometry">
              <mxPoint x="1237.5" y="224" as="sourcePoint" />
              <mxPoint x="907.5" y="9" as="targetPoint" />
            </mxGeometry>
          </mxCell>
        </object>
        <object label="&lt;div&gt;&lt;span style=&quot;font-size: 14px&quot;&gt;&lt;b style=&quot;font-size: 16px&quot;&gt;Web Page&lt;/b&gt;&lt;/span&gt;&lt;/div&gt;&lt;div&gt;&lt;span style=&quot;font-size: 8px&quot;&gt;[Container: JavaScript, Vue and ECharts]&lt;/span&gt;&lt;/div&gt;&lt;div&gt;&lt;span style=&quot;font-size: 8px&quot;&gt;&lt;br&gt;&lt;/span&gt;&lt;/div&gt;&lt;div&gt;&lt;font style=&quot;font-size: 14px&quot;&gt;Provide all of the visualising and operating functionality to users via browsers.&lt;/font&gt;&lt;br&gt;&lt;/div&gt;" placeholders="1" name="Container Name" technology="e.g. Python, Flask" description="Description" id="CtTkhzNRKS3yQk-eYBiU-36">
          <mxCell style="rounded=0;whiteSpace=wrap;html=1;fillColor=#3B8CD2;fontColor=#FFFFFF;strokeColor=#2F6FA6;rotation=0;" vertex="1" parent="j5aUkZLm4WQyy_nmsf1Z-1">
            <mxGeometry x="1246.25" y="101.5" width="197.5" height="145" as="geometry" />
          </mxCell>
        </object>
        <object label="&lt;span style=&quot;font-size: 14px&quot;&gt;&lt;b&gt;Request&lt;/b&gt;&lt;/span&gt;&lt;br style=&quot;font-size: 10px&quot;&gt;[HTTP]" placeholders="1" name="Dependency Operation Name" technology="JDBC" id="CtTkhzNRKS3yQk-eYBiU-37">
          <mxCell style="endArrow=block;html=1;fontSize=10;fontColor=#404040;strokeWidth=1;endFill=1;dashed=1;dashPattern=8 8;strokeColor=#828282;elbow=vertical;entryX=0.5;entryY=0;entryDx=0;entryDy=0;exitX=0.5;exitY=1;exitDx=0;exitDy=0;edgeStyle=orthogonalEdgeStyle;" edge="1" parent="j5aUkZLm4WQyy_nmsf1Z-1" source="CtTkhzNRKS3yQk-eYBiU-36" target="CtTkhzNRKS3yQk-eYBiU-18">
            <mxGeometry width="50" height="50" relative="1" as="geometry">
              <mxPoint x="443.75" y="336.5" as="sourcePoint" />
              <mxPoint x="587" y="336.5" as="targetPoint" />
            </mxGeometry>
          </mxCell>
        </object>
        <object label="" placeholders="1" name="Dependency Operation Name" technology="JDBC" id="CtTkhzNRKS3yQk-eYBiU-39">
          <mxCell style="endArrow=block;html=1;fontSize=10;fontColor=#404040;strokeWidth=1;endFill=1;dashed=1;dashPattern=8 8;strokeColor=#828282;elbow=vertical;entryX=0.5;entryY=0;entryDx=0;entryDy=0;exitX=0.5;exitY=1;exitDx=0;exitDy=0;edgeStyle=orthogonalEdgeStyle;" edge="1" parent="j5aUkZLm4WQyy_nmsf1Z-1" source="CtTkhzNRKS3yQk-eYBiU-18" target="CtTkhzNRKS3yQk-eYBiU-20">
            <mxGeometry width="50" height="50" relative="1" as="geometry">
              <mxPoint x="1210" y="244" as="sourcePoint" />
              <mxPoint x="1058.75" y="349" as="targetPoint" />
            </mxGeometry>
          </mxCell>
        </object>
        <object label="" placeholders="1" name="Dependency Operation Name" technology="JDBC" id="CtTkhzNRKS3yQk-eYBiU-41">
          <mxCell style="endArrow=block;html=1;fontSize=10;fontColor=#404040;strokeWidth=1;endFill=1;dashed=1;dashPattern=8 8;strokeColor=#828282;elbow=vertical;entryX=0.5;entryY=0;entryDx=0;entryDy=0;exitX=0.5;exitY=1;exitDx=0;exitDy=0;" edge="1" parent="j5aUkZLm4WQyy_nmsf1Z-1" source="CtTkhzNRKS3yQk-eYBiU-20" target="CtTkhzNRKS3yQk-eYBiU-31">
            <mxGeometry width="50" height="50" relative="1" as="geometry">
              <mxPoint x="1058.75" y="469" as="sourcePoint" />
              <mxPoint x="1210" y="539" as="targetPoint" />
            </mxGeometry>
          </mxCell>
        </object>
        <object label="&lt;b style=&quot;font-size: 14px&quot;&gt;Load&lt;/b&gt;&lt;span style=&quot;font-size: 14px&quot;&gt;&lt;b&gt;&lt;br&gt;&lt;/b&gt;&lt;/span&gt;[JavaBean]" placeholders="1" name="Dependency Operation Name" technology="JDBC" id="CtTkhzNRKS3yQk-eYBiU-42">
          <mxCell style="endArrow=block;html=1;fontSize=10;fontColor=#404040;strokeWidth=1;endFill=1;dashed=1;dashPattern=8 8;strokeColor=#828282;elbow=vertical;entryX=0.5;entryY=0;entryDx=0;entryDy=0;exitX=0.5;exitY=1;exitDx=0;exitDy=0;" edge="1" parent="j5aUkZLm4WQyy_nmsf1Z-1" source="CtTkhzNRKS3yQk-eYBiU-31" target="CtTkhzNRKS3yQk-eYBiU-28">
            <mxGeometry width="50" height="50" relative="1" as="geometry">
              <mxPoint x="1110" y="850" as="sourcePoint" />
              <mxPoint x="1210" y="719" as="targetPoint" />
            </mxGeometry>
          </mxCell>
        </object>
        <object label="&lt;span style=&quot;font-size: 14px&quot;&gt;&lt;b&gt;Scan&lt;/b&gt;&lt;/span&gt;&lt;br style=&quot;font-size: 10px&quot;&gt;[Java and JavaParser]" placeholders="1" name="Dependency Operation Name" technology="JDBC" id="CtTkhzNRKS3yQk-eYBiU-11">
          <mxCell style="endArrow=block;html=1;fontSize=10;fontColor=#404040;strokeWidth=1;endFill=1;dashed=1;dashPattern=8 8;strokeColor=#828282;elbow=vertical;entryX=0.5;entryY=1;entryDx=0;entryDy=0;exitX=0.5;exitY=0;exitDx=0;exitDy=0;" edge="1" parent="j5aUkZLm4WQyy_nmsf1Z-1" source="CtTkhzNRKS3yQk-eYBiU-23" target="CtTkhzNRKS3yQk-eYBiU-4">
            <mxGeometry width="50" height="50" relative="1" as="geometry">
              <mxPoint x="125.63000000000011" y="583.9999999999998" as="sourcePoint" />
              <mxPoint x="320" y="583.9999999999998" as="targetPoint" />
            </mxGeometry>
          </mxCell>
        </object>
        <object label="&lt;span style=&quot;font-size: 14px&quot;&gt;&lt;b&gt;Analyse a project&lt;/b&gt;&lt;/span&gt;&lt;br style=&quot;font-size: 10px&quot;&gt;[JavaBean]" placeholders="1" name="Dependency Operation Name" technology="JDBC" id="CtTkhzNRKS3yQk-eYBiU-45">
          <mxCell style="endArrow=block;html=1;fontSize=10;fontColor=#404040;strokeWidth=1;endFill=1;dashed=1;dashPattern=8 8;strokeColor=#828282;elbow=vertical;entryX=0;entryY=0.5;entryDx=0;entryDy=0;exitX=1;exitY=0.5;exitDx=0;exitDy=0;" edge="1" parent="j5aUkZLm4WQyy_nmsf1Z-1" source="CtTkhzNRKS3yQk-eYBiU-19" target="CtTkhzNRKS3yQk-eYBiU-23">
            <mxGeometry x="0.0112" y="20" width="50" height="50" relative="1" as="geometry">
              <mxPoint x="1210" y="244" as="sourcePoint" />
              <mxPoint x="1058.75" y="349" as="targetPoint" />
              <mxPoint as="offset" />
            </mxGeometry>
          </mxCell>
        </object>
        <object label="&lt;span style=&quot;font-size: 14px&quot;&gt;&lt;b&gt;Request&lt;/b&gt;&lt;/span&gt;&lt;br style=&quot;font-size: 10px&quot;&gt;[HTTP]" placeholders="1" name="Dependency Operation Name" technology="JDBC" id="CtTkhzNRKS3yQk-eYBiU-48">
          <mxCell style="endArrow=block;html=1;fontSize=10;fontColor=#404040;strokeWidth=1;endFill=1;dashed=1;dashPattern=8 8;strokeColor=#828282;elbow=vertical;entryX=0.5;entryY=0;entryDx=0;entryDy=0;exitX=0.5;exitY=1;exitDx=0;exitDy=0;" edge="1" parent="j5aUkZLm4WQyy_nmsf1Z-1" source="CtTkhzNRKS3yQk-eYBiU-36" target="CtTkhzNRKS3yQk-eYBiU-19">
            <mxGeometry width="50" height="50" relative="1" as="geometry">
              <mxPoint x="1210" y="244" as="sourcePoint" />
              <mxPoint x="1058.75" y="349" as="targetPoint" />
            </mxGeometry>
          </mxCell>
        </object>
        <object label="" placeholders="1" name="Dependency Operation Name" technology="JDBC" id="CtTkhzNRKS3yQk-eYBiU-50">
          <mxCell style="endArrow=block;html=1;fontSize=10;fontColor=#404040;strokeWidth=1;endFill=1;dashed=1;dashPattern=8 8;strokeColor=#828282;elbow=vertical;entryX=0.5;entryY=0;entryDx=0;entryDy=0;exitX=0.5;exitY=1;exitDx=0;exitDy=0;" edge="1" parent="j5aUkZLm4WQyy_nmsf1Z-1" source="CtTkhzNRKS3yQk-eYBiU-23" target="CtTkhzNRKS3yQk-eYBiU-24">
            <mxGeometry width="50" height="50" relative="1" as="geometry">
              <mxPoint x="1058.75" y="489" as="sourcePoint" />
              <mxPoint x="1210" y="569.0000000000002" as="targetPoint" />
            </mxGeometry>
          </mxCell>
        </object>
        <object label="&lt;div&gt;&lt;span style=&quot;font-size: 14px&quot;&gt;&lt;b style=&quot;font-size: 16px&quot;&gt;JavaBean Component&lt;/b&gt;&lt;/span&gt;&lt;/div&gt;&lt;div&gt;&lt;span style=&quot;font-size: 8px&quot;&gt;[Component: Java]&lt;/span&gt;&lt;/div&gt;&lt;div&gt;&lt;span style=&quot;font-size: 8px&quot;&gt;&lt;br&gt;&lt;/span&gt;&lt;/div&gt;&lt;div&gt;&lt;span style=&quot;font-size: 14px&quot;&gt;Temporarily store the information and metrics of the project.&lt;/span&gt;&lt;br&gt;&lt;/div&gt;" placeholders="1" name="Component Name" technology="e.g. Spring Bean" description="Description" id="CtTkhzNRKS3yQk-eYBiU-51">
          <mxCell style="rounded=0;whiteSpace=wrap;html=1;fillColor=#85baf0;fontColor=#000000;strokeColor=#6992BD;" vertex="1" parent="j5aUkZLm4WQyy_nmsf1Z-1">
            <mxGeometry x="1628" y="690" width="210" height="120" as="geometry" />
          </mxCell>
        </object>
        <object label="&lt;b style=&quot;font-size: 14px&quot;&gt;Add/Save/Deletet&lt;/b&gt;&lt;br&gt;&lt;font style=&quot;font-size: 12px&quot;&gt;[JavaBean]&lt;/font&gt;" placeholders="1" name="Dependency Operation Name" technology="JDBC" id="CtTkhzNRKS3yQk-eYBiU-56">
          <mxCell style="endArrow=block;html=1;fontSize=10;fontColor=#404040;strokeWidth=1;endFill=1;dashed=1;dashPattern=8 8;strokeColor=#828282;elbow=vertical;entryX=1;entryY=0.5;entryDx=0;entryDy=0;exitX=0.5;exitY=1;exitDx=0;exitDy=0;edgeStyle=orthogonalEdgeStyle;" edge="1" parent="j5aUkZLm4WQyy_nmsf1Z-1" source="CtTkhzNRKS3yQk-eYBiU-19" target="CtTkhzNRKS3yQk-eYBiU-28">
            <mxGeometry x="-0.156" y="35" width="50" height="50" relative="1" as="geometry">
              <mxPoint x="1210" y="244" as="sourcePoint" />
              <mxPoint x="1355" y="349" as="targetPoint" />
              <mxPoint y="-1" as="offset" />
            </mxGeometry>
          </mxCell>
        </object>
        <object label="" placeholders="1" name="Dependency Operation Name" technology="JDBC" id="nZ0qSR4bU0-BGP9E9dJ0-4">
          <mxCell style="endArrow=block;html=1;fontSize=10;fontColor=#404040;strokeWidth=1;endFill=1;dashed=1;dashPattern=8 8;strokeColor=#828282;elbow=vertical;entryX=0.5;entryY=0;entryDx=0;entryDy=0;exitX=0.5;exitY=1;exitDx=0;exitDy=0;" edge="1" parent="j5aUkZLm4WQyy_nmsf1Z-1" source="CtTkhzNRKS3yQk-eYBiU-24" target="CtTkhzNRKS3yQk-eYBiU-51">
            <mxGeometry width="50" height="50" relative="1" as="geometry">
              <mxPoint x="1743" y="484" as="sourcePoint" />
              <mxPoint x="1743" y="535" as="targetPoint" />
            </mxGeometry>
          </mxCell>
        </object>
        <object label="" placeholders="1" name="Dependency Operation Name" technology="JDBC" id="nZ0qSR4bU0-BGP9E9dJ0-5">
          <mxCell style="endArrow=block;html=1;fontSize=10;fontColor=#404040;strokeWidth=1;endFill=1;dashed=1;dashPattern=8 8;strokeColor=#828282;elbow=vertical;entryX=1;entryY=0.5;entryDx=0;entryDy=0;exitX=1;exitY=0.5;exitDx=0;exitDy=0;edgeStyle=orthogonalEdgeStyle;" edge="1" parent="j5aUkZLm4WQyy_nmsf1Z-1" source="CtTkhzNRKS3yQk-eYBiU-23" target="CtTkhzNRKS3yQk-eYBiU-51">
            <mxGeometry width="50" height="50" relative="1" as="geometry">
              <mxPoint x="1743" y="655" as="sourcePoint" />
              <mxPoint x="1743" y="700" as="targetPoint" />
              <Array as="points">
                <mxPoint x="1880" y="409" />
                <mxPoint x="1880" y="750" />
              </Array>
            </mxGeometry>
          </mxCell>
        </object>
        <object label="&lt;div&gt;&lt;span style=&quot;font-size: 14px&quot;&gt;&lt;b style=&quot;font-size: 16px&quot;&gt;Global Properties&lt;/b&gt;&lt;/span&gt;&lt;/div&gt;&lt;div&gt;&lt;span style=&quot;font-size: 8px&quot;&gt;[Container: Java]&lt;/span&gt;&lt;/div&gt;&lt;div&gt;&lt;span style=&quot;font-size: 8px&quot;&gt;&lt;br&gt;&lt;/span&gt;&lt;/div&gt;&lt;div&gt;&lt;span style=&quot;font-size: 14px&quot;&gt;Load global configurations and provide to all modules.&lt;/span&gt;&lt;br&gt;&lt;/div&gt;" placeholders="1" name="Container Name" technology="e.g. Python, Flask" description="Description" id="iwalujihb-Bmlf2DGw__-0">
          <mxCell style="rounded=0;whiteSpace=wrap;html=1;fillColor=#3B8CD2;fontColor=#FFFFFF;strokeColor=#2F6FA6;rotation=0;" vertex="1" parent="j5aUkZLm4WQyy_nmsf1Z-1">
            <mxGeometry x="1465" y="960" width="188.75" height="119" as="geometry" />
          </mxCell>
        </object>
        <object label="&lt;div&gt;&lt;span style=&quot;font-size: 14px&quot;&gt;&lt;b style=&quot;font-size: 16px&quot;&gt;Logging&lt;/b&gt;&lt;/span&gt;&lt;/div&gt;&lt;div&gt;&lt;span style=&quot;font-size: 8px&quot;&gt;[Container: slf4j and Logback]&lt;/span&gt;&lt;/div&gt;&lt;div&gt;&lt;span style=&quot;font-size: 8px&quot;&gt;&lt;br&gt;&lt;/span&gt;&lt;/div&gt;&lt;div&gt;&lt;font style=&quot;font-size: 14px&quot;&gt;The logging system in T4M.&lt;/font&gt;&lt;br&gt;&lt;/div&gt;" placeholders="1" name="Container Name" technology="e.g. Python, Flask" description="Description" id="iwalujihb-Bmlf2DGw__-1">
          <mxCell style="rounded=0;whiteSpace=wrap;html=1;fillColor=#3B8CD2;fontColor=#FFFFFF;strokeColor=#2F6FA6;rotation=0;" vertex="1" parent="j5aUkZLm4WQyy_nmsf1Z-1">
            <mxGeometry x="1700" y="910" width="188.75" height="109" as="geometry" />
          </mxCell>
        </object>
        <object label="&lt;div&gt;&lt;span style=&quot;font-size: 14px&quot;&gt;&lt;b style=&quot;font-size: 16px&quot;&gt;Testing&lt;/b&gt;&lt;/span&gt;&lt;/div&gt;&lt;div&gt;&lt;span style=&quot;font-size: 8px&quot;&gt;[Container: JUnit]&lt;/span&gt;&lt;/div&gt;&lt;div&gt;&lt;span style=&quot;font-size: 8px&quot;&gt;&lt;br&gt;&lt;/span&gt;&lt;/div&gt;&lt;div&gt;&lt;span style=&quot;font-size: 14px&quot;&gt;Provide unit tests to all modules.&lt;/span&gt;&lt;br&gt;&lt;/div&gt;" placeholders="1" name="Container Name" technology="e.g. Python, Flask" description="Description" id="iwalujihb-Bmlf2DGw__-2">
          <mxCell style="rounded=0;whiteSpace=wrap;html=1;fillColor=#3B8CD2;fontColor=#FFFFFF;strokeColor=#2F6FA6;rotation=0;" vertex="1" parent="j5aUkZLm4WQyy_nmsf1Z-1">
            <mxGeometry x="1700" y="1050" width="188.75" height="109" as="geometry" />
          </mxCell>
        </object>
        <object label="&lt;span style=&quot;font-size: 14px&quot;&gt;&lt;b&gt;Read/write/delete&lt;/b&gt;&lt;/span&gt;" placeholders="1" name="Dependency Operation Name" technology="JDBC" id="NSihoST_T77dwi5kEI7F-0">
          <mxCell style="endArrow=block;html=1;fontSize=10;fontColor=#404040;strokeWidth=1;endFill=1;dashed=1;dashPattern=8 8;strokeColor=#828282;elbow=vertical;entryX=0.5;entryY=0;entryDx=0;entryDy=0;exitX=0.5;exitY=1;exitDx=0;exitDy=0;" edge="1" parent="j5aUkZLm4WQyy_nmsf1Z-1" source="CtTkhzNRKS3yQk-eYBiU-28" target="CtTkhzNRKS3yQk-eYBiU-30">
            <mxGeometry width="50" height="50" relative="1" as="geometry">
              <mxPoint x="1210" y="799" as="sourcePoint" />
              <mxPoint x="1210" y="889" as="targetPoint" />
            </mxGeometry>
          </mxCell>
        </object>
      </root>
    </mxGraphModel>
  </diagram>
  <diagram id="QUlqBLA50SskU6iBFKBg" name="Code">
    <mxGraphModel dx="817" dy="554" grid="1" gridSize="10" guides="1" tooltips="1" connect="1" arrows="1" fold="1" page="1" pageScale="1" pageWidth="827" pageHeight="1169" math="0" shadow="0">
      <root>
        <mxCell id="6fH3_mcf9x2sEvTwl4lF-0" />
        <mxCell id="6fH3_mcf9x2sEvTwl4lF-1" parent="6fH3_mcf9x2sEvTwl4lF-0" />
      </root>
    </mxGraphModel>
  </diagram>
</mxfile>
